Exact Audio Copy V0.99 prebeta 5 from 4. May 2009

EAC extraction logfile from 20. June 2009, 16:06

Deep Blue Something / Breakfast At Tiffany's

Used drive  : _NEC    DVD_RW ND-2510A   Adapter: 0  ID: 0

Read mode               : Secure
Utilize accurate stream : Yes
Defeat audio cache      : Yes
Make use of C2 pointers : No

Read offset correction                      : 48
Overread into Lead-In and Lead-Out          : No
Fill up missing offset samples with silence : Yes
Delete leading and trailing silent blocks   : No
Null samples used in CRC calculations       : Yes
Used interface                              : Native Win32 interface for Win NT & 2000
Gap handling                                : Appended to previous track

Used output format              : User Defined Encoder
Selected bitrate                : 128 kBit/s
Quality                         : High
Add ID3 tag                     : No
Command line compressor         : C:Program Files (x86)Exact Audio CopyFlacflac.exe
Additional command line options : -V -8 -T "artist=%a" -T "title=%t" -T "album=%g" -T "date=%y" -T "tracknumber=%n" -T "genre=%m" %s


TOC of the extracted CD

     Track |   Start  |  Length  | Start sector | End sector 
    ---------------------------------------------------------
        1  |  0:00.32 |  4:19.30 |        32    |    19486   
        2  |  4:19.62 |  3:22.00 |     19487    |    34636   
        3  |  7:41.62 |  4:16.18 |     34637    |    53854   


Track  1

     Filename F:RippedDeep Blue Something - Breakfast At Tiffany's - 1996 (FLAC) 1 - Breakfast At Tiffany's.wav

     Pre-gap length  0:00:02.42

     Peak level 100.0 %
     Track quality 100.0 %
     Test CRC 884A9D5F
     Copy CRC 884A9D5F
     Accurately ripped (confidence 10)  [B5261DA3]
     Copy OK

Track  2

     Filename F:RippedDeep Blue Something - Breakfast At Tiffany's - 1996 (FLAC) 2 - A Water Prayer.wav

     Pre-gap length  0:00:01.60

     Peak level 95.4 %
     Track quality 100.0 %
     Test CRC 7E19598C
     Copy CRC 7E19598C
     Accurately ripped (confidence 8)  [DF31C95A]
     Copy OK

Track  3

     Filename F:RippedDeep Blue Something - Breakfast At Tiffany's - 1996 (FLAC) 3 - Sun (Non LP Track).wav

     Pre-gap length  0:00:03.02

     Peak level 90.9 %
     Track quality 100.0 %
     Test CRC 71057793
     Copy CRC 71057793
     Accurately ripped (confidence 8)  [BA522ECF]
     Copy OK


All tracks accurately ripped

No errors occurred

End of status report